PathFileType	4	(X/Y/Z)	Patient4_TMGait_0pt2_03_right_09.trc.trc
DataRate	CameraRate	NumFrames	NumMarkers	Units	OrigDataRate	OrigDataStartFrame	OrigNumFrames
45.901639344262	45.901639344262	4	33	mm	45.901639344262	1	       141
Frame#	Time	Sacral			L.Shoulder			Chest			R.Shoulder			Neck			R.ASIS			L.ASIS			R.Thigh.Superior			R.Thigh.Lateral			R.Thigh.Inferior			R.Patella			L.Thigh.Superior			L.Thigh.Lateral			L.Thigh.Inferior			L.Patella			L.Shank.Superior			L.Shank.Lateral			L.Shank.Inferior			R.Shank.Superior			R.Shank.Lateral			R.Shank.Inferior			R.Heel			R.Midfoot.Superior			R.Midfoot.Lateral			R.Toe			L.Heel			L.Midfoot.Lateral			L.Midfoot.Superior			L.Toe			L.Elbow			L.Wrist			R.Elbow			R.Wrist			
		X1	Y1	Z1	X2	Y2	Z2	X3	Y3	Z3	X4	Y4	Z4	X5	Y5	Z5	X6	Y6	Z6	X7	Y7	Z7	X8	Y8	Z8	X9	Y9	Z9	X10	Y10	Z10	X11	Y11	Z11	X12	Y12	Z12	X13	Y13	Z13	X14	Y14	Z14	X15	Y15	Z15	X16	Y16	Z16	X17	Y17	Z17	X18	Y18	Z18	X19	Y19	Z19	X20	Y20	Z20	X21	Y21	Z21	X22	Y22	Z22	X23	Y23	Z23	X24	Y24	Z24	X25	Y25	Z25	X26	Y26	Z26	X27	Y27	Z27	X28	Y28	Z28	X29	Y29	Z29	X30	Y30	Z30	X31	Y31	Z31	X32	Y32	Z32	X33	Y33	Z33	

1	19.160000000000	724.814004521962	996.547581611824	421.275561264325	904.545565555743	1426.642044068108	245.595549509551	999.317980829916	1358.078984347911	410.649946117639	910.694334912920	1428.549493295423	581.812257174067	871.122687619369	1488.310860126421	402.794338025649	952.029717873874	937.114895571022	545.838677561488	946.181757470790	954.135584640985	270.927606898485	1002.642006936611	735.045046603915	531.413365246560	929.216342264495	629.447206389675	606.567794703262	1011.270614647746	567.537980691195	536.148753215773	1006.885264363440	461.681688174714	563.817192285415	1009.342007756128	750.341454364458	310.462006345458	932.993651924186	615.961398666048	245.784036814033	1027.944619859522	556.284792520700	319.404066998809	1033.833436811535	483.250505871982	329.353840446935	999.721852211083	407.310900383101	322.062083914254	905.615067531178	299.954701787917	264.282430651143	937.120491649427	186.341230486557	339.997136875067	931.031817662501	393.707144318509	577.677971233133	815.756164908307	357.263747265136	650.057187548260	798.194197200624	245.352152887010	606.993845593079	592.674663371442	178.905059663011	601.369082631028	766.245090240431	125.239539997603	629.863076865105	659.625679417176	121.148891582394	669.164964456295	836.144841321482	31.610413012447	646.016270563231	794.300274568000	38.443475012885	372.378656818030	872.048291522761	35.134997126377	295.431987755690	954.477810446679	95.361272886469	327.565224355618	1084.016037645110	42.531595711048	304.211620651124	965.138468582827	1081.446222189591	117.413053126817	1126.532881738266	875.028717962111	128.215885256166	918.003157337340	1068.527040493109	688.971284461816	1056.684006020471	846.227998835545	682.736811668457	
2	19.181785714286	724.218090186592	994.922240556392	416.857822033668	907.843882887969	1425.381186477139	243.444196077131	999.836592099591	1356.320620614817	409.777526737177	908.669165055451	1426.430802809985	579.797668555465	872.337735672982	1486.902184860256	400.494919673092	950.486703628823	936.198395297766	543.482192024336	947.034145928448	952.739490242904	268.516234837900	1007.224376882085	738.233978192742	527.677522942553	938.091148518957	630.641416624148	603.079742443496	1021.670872333041	571.241253371804	532.251665305188	1019.894752907269	464.143170360186	560.521430348371	1010.101801919047	748.878093741278	308.032281744607	933.823861579432	614.240494397408	244.009088201053	1028.534786479651	554.877207866925	318.174001654001	1034.445821520973	481.752700574647	328.502899383076	999.432427351008	405.638797784504	321.393747225480	904.391986131822	299.078231865255	263.584816290817	934.140276060500	185.469609436095	339.820652295642	942.843027465890	395.974248720950	574.413579340678	826.108583278486	362.298113241032	646.282807611423	806.204849315778	250.646010655289	603.679746378114	599.913374193838	190.627126010515	596.825603730046	771.375650304874	130.985427299499	626.539818393004	664.352147758040	130.836037549034	665.304618120825	837.374354257905	31.153694750697	644.526724799157	789.953575814778	38.459633308593	372.278356648537	867.717919252643	35.103917766604	295.327139976268	950.189024623448	95.258398146618	327.550477668150	1079.710099930048	42.356057788740	304.184227958650	974.250365825312	1081.989805738067	114.375815757682	1144.359009792174	883.615937431413	127.379010443337	896.986298635422	1068.086674499227	684.973329447062	1009.068288339940	836.541878310431	682.653059685815	
3	19.203571428571	723.651500805490	993.640436070349	412.370947804624	911.340674276796	1424.373505038416	241.352747369407	1000.382491572791	1354.878063398063	409.045123184840	906.503098615801	1424.725564519207	577.768600561836	873.596154345083	1485.769401792340	398.191219070706	948.853759391367	935.577236192848	541.242565524285	948.023855907043	951.604100002015	266.239577236036	1011.615475627128	741.767474534136	524.019948582770	946.774481358660	632.211655944106	599.710841394855	1031.840699525916	575.317166835454	528.464335942960	1032.770546555478	467.082253540202	557.337269198924	1010.681372038285	747.479672447259	305.724406107703	934.288023038877	612.726014609697	242.249034730092	1028.604446637650	553.530711442995	316.995919749393	1034.439526199144	480.366690110302	327.704825659839	998.597359582964	404.115257534565	320.742203108995	902.748554345617	298.263566280097	262.876317484864	930.855943390243	184.679475802811	339.636010014426	954.731340607729	398.508705776251	571.237917340716	836.654434928415	367.057449198626	642.598931461591	814.888505707044	255.525662667396	600.415010041823	607.894093305372	200.658658970813	592.469727846928	777.771510702771	136.261025448361	623.233164572544	670.341217093833	139.270997061921	661.573944598269	840.683553130361	30.892608792773	642.871136543806	785.424786247248	38.469896064385	372.171073377383	863.212515729003	35.069349141404	295.216688675969	945.719000108616	95.164188847699	327.520170038265	1075.226265232438	42.201700972144	304.156033120254	983.591335628335	1082.908586157227	111.274039822482	1162.689165898945	893.131938631242	126.540809597222	875.080347190687	1068.717432051312	681.029507887783	960.634648918091	828.591127058242	682.489712815867	
4	19.225357142857	723.149218103575	992.900914374898	407.965789085569	915.000676080691	1423.760099617184	239.430663955963	1000.953473704139	1353.937297780041	408.541951903727	904.237913152827	1423.681269197868	575.794795330814	874.877050215294	1485.071203420367	395.969017365337	947.141066558134	935.401514914004	539.274592435875	949.162111092714	950.875811987824	264.268408598298	1015.520455700533	745.615267682244	520.656315680850	954.766437395629	634.231858559469	596.678962462992	1041.195797382270	579.715744651103	525.019071970581	1044.856667715506	470.567518034130	554.459696950644	1010.959666092133	746.224126725782	303.700129350555	934.192517866819	611.567176183599	240.586084315625	1027.904933995249	552.323711593571	315.943895501273	1033.522143155885	479.193305189412	327.013271631424	996.996908190083	402.867184819796	320.137776540753	900.550252521116	297.570982291586	262.181519651970	927.249976814849	184.037733657457	339.447094252390	966.228657662753	401.318268601452	568.353067025339	847.103322388757	371.191486192665	639.244609940183	824.295329019019	259.610166837303	597.412551650964	616.866786277745	207.813831960124	588.609783039827	785.891885617424	140.663664507218	620.163290708623	678.116017678236	145.579969583930	658.249548151480	846.994776204616	30.977527666315	641.170290195780	780.801143055740	38.472507182960	372.059094900556	858.620116581874	35.032514048379	295.102880960791	941.152450855071	95.085178338716	327.470316036108	1070.651059748731	42.080976493986	304.128448786217	992.936805026674	1084.334132563389	108.215884470267	1181.061905992159	903.678904753335	125.748160138102	852.829191399601	1070.845449437134	677.291097471457	912.995632920531	823.361066626763	682.191723919749	
